<?xml version="1.0" encoding="UTF-8"?>
<svg id="Layer_1" xmlns="http://www.w3.org/2000/svg" version="1.1" viewBox="0 0 24 24">
  <!-- Generator: Adobe Illustrator 29.3.1, SVG Export Plug-In . SVG Version: 2.1.0 Build 151)  -->
  <defs>
    <style>
      .st0 {
        fill: #8b1a10;
      }

      .st1 {
        fill: #d1dbd5;
      }
    </style>
  </defs>
  <rect class="st1" width="24" height="24" rx="4.8" ry="4.8"/>
  <path class="st0" d="M9.3,20.8c-1.7,0-3.2-.6-4.4-1.8-1.2-1.2-1.8-2.7-1.8-4.4s.6-3.2,1.8-4.3c1.2-1.2,2.6-1.8,4.3-1.8h.3l.6-1c.2-.3.4-.5.7-.6s.6,0,.9.1l.6.3v-.2c.4-.6.9-1,1.6-1.2s1.3,0,1.9.2l.7.4-.8,1.4-.7-.4c-.2-.1-.4-.1-.6,0s-.4.2-.5.4v.2c-.1,0,.7.5.7.5.3.2.5.4.6.7s0,.6-.1.9l-.6,1c.3.5.6,1,.7,1.6s.2,1.1.2,1.7c0,1.7-.6,3.2-1.8,4.4-1.2,1.2-2.7,1.8-4.4,1.8ZM9.3,19.2c1.2,0,2.3-.4,3.2-1.3s1.3-1.9,1.3-3.2,0-.8-.2-1.3-.3-.8-.5-1.2l-.5-.8.9-1.5-2.1-1.2-.9,1.5h-.9c-1.3,0-2.4.4-3.4,1.2s-1.4,1.9-1.4,3.2.4,2.3,1.3,3.2,2,1.3,3.2,1.3ZM18.6,9.3v-1.6h2.5v1.6h-2.5ZM14.1,4.8v-2.5h1.6v2.5h-1.6ZM18.1,6.4l-1.2-1.2,1.7-1.7,1.2,1.2-1.7,1.7Z"/>
</svg>